<mxfile host="app.diagrams.net" modified="2020-04-15T10:23:29.349Z" agent="5.0 (Windows NT 10.0; Win64; x64) AppleWebKit/537.36 (KHTML, like Gecko) Chrome/80.0.3987.149 Safari/537.36" etag="9UEPJWm2JhL1GY5t_uq_" version="12.9.10" type="github">
  <diagram id="vPkoD4cjhlNXQQTwAjVm" name="Page-1">
    <mxGraphModel dx="981" dy="526" grid="1" gridSize="10" guides="1" tooltips="1" connect="1" arrows="1" fold="1" page="1" pageScale="1" pageWidth="1169" pageHeight="827" math="0" shadow="0">
      <root>
        <mxCell id="0" />
        <mxCell id="1" parent="0" />
        <mxCell id="KdVAQakqdPZRSXLw0mr6-6" style="edgeStyle=orthogonalEdgeStyle;rounded=0;orthogonalLoop=1;jettySize=auto;html=1;exitX=1;exitY=0.5;exitDx=0;exitDy=0;entryX=0;entryY=0.5;entryDx=0;entryDy=0;entryPerimeter=0;" edge="1" parent="1" source="KdVAQakqdPZRSXLw0mr6-1" target="KdVAQakqdPZRSXLw0mr6-4">
          <mxGeometry relative="1" as="geometry" />
        </mxCell>
        <mxCell id="KdVAQakqdPZRSXLw0mr6-12" style="edgeStyle=orthogonalEdgeStyle;rounded=0;orthogonalLoop=1;jettySize=auto;html=1;exitX=0.5;exitY=1;exitDx=0;exitDy=0;" edge="1" parent="1" source="KdVAQakqdPZRSXLw0mr6-1" target="KdVAQakqdPZRSXLw0mr6-2">
          <mxGeometry relative="1" as="geometry" />
        </mxCell>
        <mxCell id="KdVAQakqdPZRSXLw0mr6-1" value="WBRAM" style="rounded=1;whiteSpace=wrap;html=1;" vertex="1" parent="1">
          <mxGeometry x="270" y="150" width="120" height="60" as="geometry" />
        </mxCell>
        <mxCell id="KdVAQakqdPZRSXLw0mr6-7" style="edgeStyle=orthogonalEdgeStyle;rounded=0;orthogonalLoop=1;jettySize=auto;html=1;exitX=1;exitY=0.5;exitDx=0;exitDy=0;" edge="1" parent="1" source="KdVAQakqdPZRSXLw0mr6-2">
          <mxGeometry relative="1" as="geometry">
            <mxPoint x="440" y="270" as="targetPoint" />
          </mxGeometry>
        </mxCell>
        <mxCell id="KdVAQakqdPZRSXLw0mr6-2" value="RBRAM" style="rounded=1;whiteSpace=wrap;html=1;" vertex="1" parent="1">
          <mxGeometry x="270" y="354" width="120" height="60" as="geometry" />
        </mxCell>
        <mxCell id="KdVAQakqdPZRSXLw0mr6-3" value="DDR" style="rounded=1;whiteSpace=wrap;html=1;" vertex="1" parent="1">
          <mxGeometry x="600" y="130" width="120" height="300" as="geometry" />
        </mxCell>
        <mxCell id="KdVAQakqdPZRSXLw0mr6-4" value="" style="shape=doubleArrow;whiteSpace=wrap;html=1;" vertex="1" parent="1">
          <mxGeometry x="450" y="240" width="180" height="60" as="geometry" />
        </mxCell>
        <mxCell id="KdVAQakqdPZRSXLw0mr6-5" value="AXI4" style="text;html=1;align=center;verticalAlign=middle;resizable=0;points=[];autosize=1;" vertex="1" parent="1">
          <mxGeometry x="480" y="210" width="40" height="20" as="geometry" />
        </mxCell>
      </root>
    </mxGraphModel>
  </diagram>
</mxfile>
